# xmcd CD database file
#
# Track frame offsets:
#	150
#	18319
#	28236
#	46838
#	57645
#	74787
#	91166
#	103121
#
# Disc length: 1774 seconds
#
# Revision: 1
# Processed by: cddbd v1.5.1PL0 Copyright (c) Steve Scherf et al.
# Submitted via: CDex 1.50beta9
#
DISCID=6e06ec08
DTITLE=Ausgang - Licked
DYEAR=2005
DGENRE=Deathrock
TTITLE0=I Wanna Be Your Dog
TTITLE1=Big Big Love
TTITLE2=I Fear the Fear
TTITLE3=Lick
TTITLE4=Itchy Fingers a-go-go
TTITLE5=Your Role is to Tease
TTITLE6=Wasted Land
TTITLE7=10 Year Old Bastard Children
EXTD=YEAR: 2005
EXTT0=
EXTT1=
EXTT2=
EXTT3=
EXTT4=
EXTT5=
EXTT6=
EXTT7=
PLAYORDER=
